<?xml version="1.0" encoding="utf-8"?><svg fill="none" viewBox="0 0 320 320" xmlns="http://www.w3.org/2000/svg"><defs /><g id="Shape Layer 1"><animate repeatCount="indefinite" begin="0s" calcMode="discrete" fill="freeze" dur="2.135s" values="visible; hidden" keyTimes="0; 1" attributeName="visibility" /><g transform="translate(-37,351)"><animateTransform repeatCount="indefinite" type="translate" attributeName="transform" dur="1.702s" begin="0s" calcMode="spline" values="-37 351; 298 24; 36 275; 159 154" keyTimes="0; 0.353; 0.765; 1" keySplines="0.636 0 0.667 1; 0.333 0 0.362 1; 0.644 0 0 1" fill="freeze" /><g transform="scale(1,1) translate(2,-165)"><g id="Ellipse 1" transform="matrix(1,0,0,1,-3.5,166.5)"><path fill="#25f39e" fill-opacity="1" d="M0,-3.5C-1.933,-3.5,-3.5,-1.933,-3.5,0C-3.5,1.933,-1.933,3.5,0,3.5C1.933,3.5,3.5,1.933,3.5,0C3.5,-1.933,1.933,-3.5,0,-3.5Z" /></g></g></g></g><g id="Shape Layer 4"><animate repeatCount="indefinite" begin="0s" calcMode="discrete" fill="freeze" dur="2.135s" values="visible; hidden" keyTimes="0; 1" attributeName="visibility" /><g transform="translate(372,368)"><animateTransform repeatCount="indefinite" type="translate" attributeName="transform" dur="1.702s" begin="0s" calcMode="spline" values="372 368; 37 39; 306 302; 158 156" keyTimes="0; 0.353; 0.765; 1" keySplines="0.71 0 0.667 1; 0.333 0 0.573 1; 0.481 0 0.043 1" fill="freeze" /><g transform="scale(1,1) translate(2,-165)"><g id="Ellipse 1" transform="matrix(1,0,0,1,-3.5,166.5)"><path fill="#25f39e" fill-opacity="1" d="M0,-3.5C-1.933,-3.5,-3.5,-1.933,-3.5,0C-3.5,1.933,-1.933,3.5,0,3.5C1.933,3.5,3.5,1.933,3.5,0C3.5,-1.933,1.933,-3.5,0,-3.5Z" /></g></g></g></g><g id="Shape Layer 6"><animate repeatCount="indefinite" begin="0s" calcMode="discrete" fill="freeze" dur="2.135s" values="visible; hidden" keyTimes="0; 1" attributeName="visibility" /><g transform="translate(90,412)"><animateTransform repeatCount="indefinite" type="translate" attributeName="transform" dur="1.702s" begin="0s" calcMode="spline" values="90 412; 198 11; 120 303; 161 154" keyTimes="0; 0.353; 0.765; 1" keySplines="0.333 0 0.124 1; 0.333 0 0.44 1; 0.703 0 0 1" fill="freeze" /><g transform="scale(1,1) translate(2,-165)"><g id="Ellipse 1" transform="matrix(1,0,0,1,-3.5,166.5)"><path fill="#25f39e" fill-opacity="1" d="M0,-3.5C-1.933,-3.5,-3.5,-1.933,-3.5,0C-3.5,1.933,-1.933,3.5,0,3.5C1.933,3.5,3.5,1.933,3.5,0C3.5,-1.933,1.933,-3.5,0,-3.5Z" /></g></g></g></g><g id="Shape Layer 7"><animate repeatCount="indefinite" begin="0s" calcMode="discrete" fill="freeze" dur="2.135s" values="visible; hidden" keyTimes="0; 1" attributeName="visibility" /><g transform="translate(271,408)"><animateTransform repeatCount="indefinite" type="translate" attributeName="transform" dur="1.702s" begin="0s" calcMode="spline" values="271 408; 96 15; 228 307; 162 156" keyTimes="0; 0.353; 0.765; 1" keySplines="0.296 0 0.065 1; 0.333 0 0.667 1; 0.526 0 0 1" fill="freeze" /><g transform="scale(1,1) translate(2,-165)"><g id="Ellipse 1" transform="matrix(1,0,0,1,-3.5,166.5)"><path fill="#25f39e" fill-opacity="1" d="M0,-3.5C-1.933,-3.5,-3.5,-1.933,-3.5,0C-3.5,1.933,-1.933,3.5,0,3.5C1.933,3.5,3.5,1.933,3.5,0C3.5,-1.933,1.933,-3.5,0,-3.5Z" /></g></g></g></g><g id="Shape Layer 3"><animate repeatCount="indefinite" begin="0s" calcMode="discrete" fill="freeze" dur="2.135s" values="visible; hidden" keyTimes="0; 1" attributeName="visibility" /><g transform="translate(385,258)"><animateTransform repeatCount="indefinite" type="translate" attributeName="transform" dur="1.702s" begin="0s" calcMode="spline" values="385 258; 35 100; 313 224; 163 155" keyTimes="0; 0.353; 0.765; 1" keySplines="0.503 0 0.667 1; 0.797 0 0.618 1; 0.496 0 0.058 1" fill="freeze" /><g transform="scale(1,1) translate(2,-165)"><g id="Ellipse 1" transform="matrix(1,0,0,1,-3.5,166.5)"><path fill="#25f39e" fill-opacity="1" d="M0,-3.5C-1.933,-3.5,-3.5,-1.933,-3.5,0C-3.5,1.933,-1.933,3.5,0,3.5C1.933,3.5,3.5,1.933,3.5,0C3.5,-1.933,1.933,-3.5,0,-3.5Z" /></g></g></g></g><g id="Shape Layer 8"><animate repeatCount="indefinite" begin="0s" calcMode="discrete" fill="freeze" dur="2.135s" values="visible; hidden" keyTimes="0; 1" attributeName="visibility" /><g transform="translate(-71,244)"><animateTransform repeatCount="indefinite" type="translate" attributeName="transform" dur="1.702s" begin="0s" calcMode="spline" values="-71 244; 316 92; 28 204; 163 153" keyTimes="0; 0.353; 0.765; 1" keySplines="0.621 0 0.667 1; 0.333 0 0.667 1; 0.703 0 0 1" fill="freeze" /><g transform="scale(1,1) translate(2,-165)"><g id="Ellipse 1" transform="matrix(1,0,0,1,-3.5,166.5)"><path fill="#25f39e" fill-opacity="1" d="M0,-3.5C-1.933,-3.5,-3.5,-1.933,-3.5,0C-3.5,1.933,-1.933,3.5,0,3.5C1.933,3.5,3.5,1.933,3.5,0C3.5,-1.933,1.933,-3.5,0,-3.5Z" /></g></g></g></g><g id="Shape Layer 5"><animate repeatCount="indefinite" begin="0s" calcMode="discrete" fill="freeze" dur="2.135s" values="visible; hidden" keyTimes="0; 1" attributeName="visibility" /><g transform="translate(392,156)"><animateTransform repeatCount="indefinite" type="translate" attributeName="transform" dur="1.702s" begin="0s" calcMode="spline" values="392 156; 36 156; 305 156; 163 156" keyTimes="0; 0.353; 0.765; 1" keySplines="0.823 0 0.667 1; 0.333 0 0.667 1; 0.343 0 0 1" fill="freeze" /><g transform="scale(1,1) translate(2,-165)"><g id="Ellipse 1" transform="matrix(1,0,0,1,-3.5,166.5)"><path fill="#25f39e" fill-opacity="1" d="M0,-3.5C-1.933,-3.5,-3.5,-1.933,-3.5,0C-3.5,1.933,-1.933,3.5,0,3.5C1.933,3.5,3.5,1.933,3.5,0C3.5,-1.933,1.933,-3.5,0,-3.5Z" /></g></g></g></g><g id="Shape Layer 2"><animate repeatCount="indefinite" begin="0s" calcMode="discrete" fill="freeze" dur="2.135s" values="visible; hidden" keyTimes="0; 1" attributeName="visibility" /><g transform="translate(-77,158)"><animateTransform repeatCount="indefinite" type="translate" attributeName="transform" dur="1.702s" begin="0s" calcMode="spline" values="-77 158; 313.949 158; 41.074 158; 163 158" keyTimes="0; 0.353; 0.765; 1" keySplines="0.016 0 0.346 1; 0.333 0 0.052 1; 0.333 0 0 1" fill="freeze" /><g transform="scale(1,1) translate(2,-165)"><g id="Ellipse 1" transform="matrix(1,0,0,1,-3.5,166.5)"><path fill="#25f39e" fill-opacity="1" d="M0,-3.5C-1.933,-3.5,-3.5,-1.933,-3.5,0C-3.5,1.933,-1.933,3.5,0,3.5C1.933,3.5,3.5,1.933,3.5,0C3.5,-1.933,1.933,-3.5,0,-3.5Z" /></g></g></g></g><g visibility="hidden" id="Capa 1/confirmation Outlines"><animate repeatCount="indefinite" begin="1.535s" calcMode="discrete" fill="freeze" dur="1.602s" values="visible; visible" keyTimes="0; 1" attributeName="visibility" /><g transform="translate(159.533,158.64)"><g transform="scale(0,0)"><animateTransform repeatCount="indefinite" type="scale" attributeName="transform" dur="0.2s" begin="1.535s" calcMode="spline" values="0 0; 0.24 0.24" keyTimes="0; 1" keySplines="1 0 0 1" fill="freeze" /><g transform="translate(-176.25,-176.25)"><g id="Group 1" transform="matrix(1,0,0,1,176.25,176.25)"><path fill="#72edb5" fill-opacity="1" d="M0,-176C97.202,-176,176,-97.202,176,0C176,97.202,97.202,176,0,176C-97.202,176,-176,97.202,-176,0C-176,-97.202,-97.202,-176,0,-176Z" /></g></g></g></g></g><g visibility="hidden" id="Layer 2/confirmation Outlines"><animate repeatCount="indefinite" begin="1.802s" calcMode="discrete" fill="freeze" dur="1.335s" values="visible; visible" keyTimes="0; 1" attributeName="visibility" /><g transform="translate(159.533,158.64)"><g transform="scale(0,0)"><animateTransform repeatCount="indefinite" type="scale" attributeName="transform" dur="0.167s" begin="1.802s" calcMode="spline" values="0 0; 0.22 0.22; 0.2 0.2; 0.22 0.22" keyTimes="0; 0.6; 0.8; 1" keySplines="0.4 0 0 1; 0.8 0 0.32 1; 0.333 0 0.667 1" fill="freeze" /><g transform="translate(-78,-57.5)"><g id="Group 1" transform="matrix(1,0,0,1,77.81,57.03)"><path fill="#ffffff" fill-opacity="1" d="M48.689,-50.532L-19.999,18.148L-48.687,-10.532C-54.928,-16.78,-65.071,-16.78,-71.311,-10.532C-77.56,-4.284,-77.56,5.844,-71.311,12.092L-31.311,52.092C-28.191,55.22,-24.096,56.78,-19.999,56.78C-15.903,56.78,-11.808,55.22,-8.688,52.092L71.313,-27.908C77.56,-34.156,77.56,-44.284,71.313,-50.532C65.073,-56.78,54.928,-56.78,48.689,-50.532Z" /></g></g></g></g></g><g transform="matrix(1,0,0,1,108.533,108.14)" visibility="hidden" id="Shape Layer 9"><animate repeatCount="indefinite" begin="1.502s" calcMode="discrete" fill="freeze" dur="4.004s" values="visible; visible" keyTimes="0; 1" attributeName="visibility" /><g id="Ellipse 1" transform="matrix(1,0,0,1,51,50.5)"><ellipse ry="51" rx="51" cy="0" cx="0" stroke-linejoin="miter" stroke-linecap="butt" stroke-width="4" stroke-opacity="1" stroke="#4cc990" /></g></g></svg>