<?xml version="1.0" encoding="utf-8"?><svg fill="none" viewBox="0 0 600 250" xmlns="http://www.w3.org/2000/svg"><defs><clipPath id="cp-600-250"><rect height="250" width="600" y="0" x="0" /></clipPath><g id="comp_1"><g id="2/calendario contornos"><g transform="translate(229.25,194)"><g transform="scale(0,0)"><animateTransform repeatCount="indefinite" type="scale" attributeName="transform" dur="1.3s" begin="1.533s" calcMode="spline" values="0 0; 1.1 1.1; 1 1; 1 1; 1.1 1.1; 0 0" keyTimes="0; 0.154; 0.333; 0.795; 0.872; 1" keySplines="0 0 1 1; 0 0 1 1; 0 0 1 1; 0.167 0.167 0.667 1; 0.167 0.167 0.667 1" fill="freeze" /><g transform="translate(-229.25,-194)"><g id="Grupo 1" transform="matrix(1,0,0,1,229.786,193.659)"><path fill="#d1eeff" fill-opacity="1" d="M12.183,17.474L-12.182,17.474C-15.105,17.474,-17.475,15.105,-17.475,12.183L-17.475,-12.182C-17.475,-15.105,-15.105,-17.474,-12.182,-17.474L12.183,-17.474C15.106,-17.474,17.475,-15.105,17.475,-12.182L17.475,12.183C17.475,15.105,15.106,17.474,12.183,17.474Z" /></g></g></g></g></g><g id="3/calendario contornos"><g transform="translate(276,194.25)"><g transform="scale(0,0)"><animateTransform repeatCount="indefinite" type="scale" attributeName="transform" dur="1.467s" begin="1.333s" calcMode="spline" values="0 0; 1.1 1.1; 1 1; 1 1; 1.1 1.1; 0 0" keyTimes="0; 0.136; 0.295; 0.818; 0.886; 1" keySplines="0 0 1 1; 0 0 1 1; 0 0 1 1; 0.167 0.167 0.667 1; 0.167 0.167 0.667 1" fill="freeze" /><g transform="translate(-276,-194.25)"><g id="Grupo 1" transform="matrix(1,0,0,1,276.595,193.659)"><path fill="#d1eeff" fill-opacity="1" d="M12.183,17.474L-12.182,17.474C-15.105,17.474,-17.474,15.105,-17.474,12.183L-17.474,-12.182C-17.474,-15.105,-15.105,-17.474,-12.182,-17.474L12.183,-17.474C15.105,-17.474,17.475,-15.105,17.475,-12.182L17.475,12.183C17.475,15.105,15.105,17.474,12.183,17.474Z" /></g></g></g></g></g><g id="3/calendario contornos 2"><g transform="translate(324,194.25)"><g transform="scale(0,0)"><animateTransform repeatCount="indefinite" type="scale" attributeName="transform" dur="1.633s" begin="1.133s" calcMode="spline" values="0 0; 1.1 1.1; 1 1; 1 1; 1.1 1.1; 0 0" keyTimes="0; 0.122; 0.265; 0.837; 0.898; 1" keySplines="0 0 1 1; 0 0 1 1; 0 0 1 1; 0.167 0.167 0.667 1; 0.167 0.167 0.667 1" fill="freeze" /><g transform="translate(-276.5,-194.25)"><g id="Grupo 1" transform="matrix(1,0,0,1,276.595,193.659)"><path fill="#d1eeff" fill-opacity="1" d="M12.183,17.474L-12.182,17.474C-15.105,17.474,-17.474,15.105,-17.474,12.183L-17.474,-12.182C-17.474,-15.105,-15.105,-17.474,-12.182,-17.474L12.183,-17.474C15.105,-17.474,17.475,-15.105,17.475,-12.182L17.475,12.183C17.475,15.105,15.105,17.474,12.183,17.474Z" /></g></g></g></g></g><g id="4/calendario contornos"><g transform="translate(370.25,193.75)"><g transform="scale(0,0)"><animateTransform repeatCount="indefinite" type="scale" attributeName="transform" dur="1.8s" begin="0.933s" calcMode="spline" values="0 0; 1.1 1.1; 1 1; 1 1; 1.1 1.1; 0 0" keyTimes="0; 0.111; 0.241; 0.852; 0.907; 1" keySplines="0 0 1 1; 0 0 1 1; 0 0 1 1; 0.167 0.167 0.667 1; 0.167 0.167 0.667 1" fill="freeze" /><g transform="translate(-370.25,-193.75)"><g id="Grupo 1" transform="matrix(1,0,0,1,370.215,193.659)"><path fill="#e5f6e7" fill-opacity="1" d="M12.182,17.474L-12.183,17.474C-15.105,17.474,-17.474,15.105,-17.474,12.183L-17.474,-12.182C-17.474,-15.105,-15.105,-17.474,-12.183,-17.474L12.182,-17.474C15.105,-17.474,17.474,-15.105,17.474,-12.182L17.474,12.183C17.474,15.105,15.105,17.474,12.182,17.474Z" /></g></g></g></g></g><g id="5/calendario contornos"><g transform="translate(370.25,147)"><g transform="scale(0,0)"><animateTransform repeatCount="indefinite" type="scale" attributeName="transform" dur="1.967s" begin="0.733s" calcMode="spline" values="0 0; 1.1 1.1; 1 1; 1 1; 1.1 1.1; 0 0" keyTimes="0; 0.102; 0.22; 0.864; 0.915; 1" keySplines="0 0 1 1; 0 0 1 1; 0 0 1 1; 0.167 0.167 0.667 1; 0.167 0.167 0.667 1" fill="freeze" /><g transform="translate(-370.25,-147)"><g id="Grupo 1" transform="matrix(1,0,0,1,370.215,146.876)"><path fill="#e5f6e7" fill-opacity="1" d="M12.182,17.474L-12.183,17.474C-15.105,17.474,-17.474,15.105,-17.474,12.182L-17.474,-12.183C-17.474,-15.105,-15.105,-17.474,-12.183,-17.474L12.182,-17.474C15.105,-17.474,17.474,-15.105,17.474,-12.183L17.474,12.182C17.474,15.105,15.105,17.474,12.182,17.474Z" /></g></g></g></g></g><g id="dia/calendario contornos"><g transform="translate(322.75,146.25)"><g transform="scale(0,0)"><animateTransform repeatCount="indefinite" type="scale" attributeName="transform" dur="2.567s" begin="0.4s" calcMode="spline" values="0 0; 1.7 1.7; 1 1; 1 1; 1.7 1.7; 0 0" keyTimes="0; 0.13; 0.221; 0.883; 0.935; 1" keySplines="0 0 1 1; 0 0 1 1; 0 0 1 1; 0 0 1 1; 0 0 1 1" fill="freeze" /><g transform="translate(-322.75,-146.25)"><g id="Grupo 1" transform="matrix(1,0,0,1,323.405,146.876)"><path fill="#38a121" fill-opacity="1" d="M12.182,17.474L-12.183,17.474C-15.105,17.474,-17.474,15.105,-17.474,12.182L-17.474,-12.183C-17.474,-15.105,-15.105,-17.474,-12.183,-17.474L12.182,-17.474C15.105,-17.474,17.474,-15.105,17.474,-12.183L17.474,12.182C17.474,15.105,15.105,17.474,12.182,17.474Z" /></g></g></g></g></g><g id="7/calendario contornos"><g transform="translate(276.5,148)"><g transform="scale(0,0)"><animateTransform repeatCount="indefinite" type="scale" attributeName="transform" dur="2.7s" begin="0.2s" calcMode="spline" values="0 0; 1.1 1.1; 1 1; 1 1; 1.1 1.1; 0 0" keyTimes="0; 0.074; 0.16; 0.901; 0.938; 1" keySplines="0 0 1 1; 0 0 1 1; 0 0 1 1; 0.167 0.167 0.667 1; 0.167 0.167 0.667 1" fill="freeze" /><g transform="translate(-276.5,-148)"><g id="Grupo 1" transform="matrix(1,0,0,1,276.595,146.876)"><path fill="#e5f6e7" fill-opacity="1" d="M12.183,17.474L-12.182,17.474C-15.105,17.474,-17.474,15.105,-17.474,12.182L-17.474,-12.183C-17.474,-15.105,-15.105,-17.474,-12.182,-17.474L12.183,-17.474C15.105,-17.474,17.475,-15.105,17.475,-12.183L17.475,12.182C17.475,15.105,15.105,17.474,12.183,17.474Z" /></g></g></g></g></g><g id="1/calendario contornos"><g transform="translate(229.75,146.25)"><g transform="scale(0,0)"><animateTransform repeatCount="indefinite" type="scale" attributeName="transform" dur="2.867s" begin="0s" calcMode="spline" values="0 0; 1.1 1.1; 1 1; 1 1; 1.1 1.1; 0 0" keyTimes="0; 0.07; 0.151; 0.907; 0.942; 1" keySplines="0 0 1 1; 0 0 1 1; 0 0 1 1; 0.167 0.167 0.667 1; 0.167 0.167 0.667 1" fill="freeze" /><g transform="translate(-229.75,-146.25)"><g id="Grupo 1" transform="matrix(1,0,0,1,229.786,146.876)"><path fill="#e5f6e7" fill-opacity="1" d="M12.183,17.474L-12.182,17.474C-15.105,17.474,-17.475,15.105,-17.475,12.182L-17.475,-12.183C-17.475,-15.105,-15.105,-17.474,-12.182,-17.474L12.183,-17.474C15.106,-17.474,17.475,-15.105,17.475,-12.183L17.475,12.182C17.475,15.105,15.106,17.474,12.183,17.474Z" /></g></g></g></g></g></g><g id="comp_0"><g id="estrellas/Loading-ilustracion contornos"><g transform="translate(34.237,58.919)"><g transform="scale(3,3)"><animateTransform repeatCount="indefinite" type="scale" attributeName="transform" dur="1.8s" begin="0.133s" calcMode="spline" values="3 3; 0 0; 5 5" keyTimes="0; 0.389; 1" keySplines="0 0 1 1; 0.167 0.167 0.667 1" fill="freeze" /><g transform="translate(-46.526,-29.526)"><g id="Grupo 2"><path stroke-linejoin="miter" stroke-linecap="round" stroke-width="0.658" stroke-opacity="1" stroke="#291bb9" d="M44.026,29.526L49.026,29.526" /></g><g id="Grupo 1"><path stroke-linejoin="miter" stroke-linecap="round" stroke-width="0.657" stroke-opacity="1" stroke="#291bb9" d="M46.526,27.026L46.526,32.026" /></g></g></g></g></g><g id="estrellas/Loading-ilustracion contornos 2"><g transform="translate(124.237,28.919)"><g transform="scale(0,0)"><animateTransform repeatCount="indefinite" type="scale" attributeName="transform" dur="1.967s" begin="0.9s" calcMode="spline" values="0 0; 4 4; 0 0; 0 0" keyTimes="0; 0.305; 0.814; 1" keySplines="0 0 1 1; 0.167 0.167 0.667 1; 0 0 1 1" fill="freeze" /><g transform="translate(-46.526,-29.526)"><g id="Grupo 2"><path stroke-linejoin="miter" stroke-linecap="round" stroke-width="0.658" stroke-opacity="1" stroke="#291bb9" d="M44.026,29.526L49.026,29.526" /></g><g id="Grupo 1"><path stroke-linejoin="miter" stroke-linecap="round" stroke-width="0.657" stroke-opacity="1" stroke="#291bb9" d="M46.526,27.026L46.526,32.026" /></g></g></g></g></g><g id="estrellas/Loading-ilustracion contornos 3"><g transform="translate(422.237,48.919)"><g transform="scale(3.083,3.083)"><animateTransform repeatCount="indefinite" type="scale" attributeName="transform" dur="2.433s" begin="0.533s" calcMode="spline" values="3.083 3.083; 4 4; 0 0; 3.083 3.083" keyTimes="0; 0.301; 0.534; 1" keySplines="0.167 0.167 0.667 1; 0.167 0.167 0.667 1; 0.167 0.167 0.667 1" fill="freeze" /><g transform="translate(-46.526,-29.526)"><g id="Grupo 2"><path stroke-linejoin="miter" stroke-linecap="round" stroke-width="0.658" stroke-opacity="1" stroke="#291bb9" d="M44.026,29.526L49.026,29.526" /></g><g id="Grupo 1"><path stroke-linejoin="miter" stroke-linecap="round" stroke-width="0.657" stroke-opacity="1" stroke="#291bb9" d="M46.526,27.026L46.526,32.026" /></g></g></g></g></g><g id="estrellas/Loading-ilustracion contornos 5"><g transform="translate(576.237,71.919)"><g transform="scale(0,0)"><animateTransform repeatCount="indefinite" type="scale" attributeName="transform" dur="1s" begin="0.167s" calcMode="spline" values="0 0; 3.08 3.08; 0 0" keyTimes="0; 0.433; 1" keySplines="0.167 0.167 0.667 1; 0.167 0.167 0.667 1" fill="freeze" /><g transform="translate(-46.526,-29.526)"><g id="Grupo 2"><path stroke-linejoin="miter" stroke-linecap="round" stroke-width="0.658" stroke-opacity="1" stroke="#291bb9" d="M44.026,29.526L49.026,29.526" /></g><g id="Grupo 1"><path stroke-linejoin="miter" stroke-linecap="round" stroke-width="0.657" stroke-opacity="1" stroke="#291bb9" d="M46.526,27.026L46.526,32.026" /></g></g></g></g></g><g id="estrellas/Loading-ilustracion contornos 4"><g transform="translate(490.237,22.919)"><g transform="scale(4.283,4.283)"><animateTransform repeatCount="indefinite" type="scale" attributeName="transform" dur="1.9s" begin="0s" calcMode="spline" values="4.283 4.283; 0 0; 4.283 4.283" keyTimes="0; 0.333; 1" keySplines="0.333 0 0.667 1; 0.333 0 0.667 1" fill="freeze" /><g transform="translate(-46.526,-29.526)"><g id="Grupo 2"><path stroke-linejoin="miter" stroke-linecap="round" stroke-width="0.658" stroke-opacity="1" stroke="#291bb9" d="M44.026,29.526L49.026,29.526" /></g><g id="Grupo 1"><path stroke-linejoin="miter" stroke-linecap="round" stroke-width="0.657" stroke-opacity="1" stroke="#291bb9" d="M46.526,27.026L46.526,32.026" /></g></g></g></g></g></g></defs><g transform="matrix(1,0,0,1,0,0)" id="Sólido Blanco 4" /><g transform="matrix(0.897,0,0,0.897,30.801,21.834)" visibility="hidden" id="fondo/calendario contornos"><animate repeatCount="indefinite" begin="3s" calcMode="discrete" fill="freeze" dur="0s" values="visible; visible" keyTimes="0; 1" attributeName="visibility" /><g id="Grupo 1" transform="matrix(1,0,0,1,300,125)"><path fill="#f5f5f5" fill-opacity="1" d="M-204.509,-54.697L-204.274,2.687L-223.274,2.765L-223.344,-14.21L-239.779,-14.143L-239.904,-44.873L-299.824,-44.627L-300,-8.165L-300,82.149L299.56,82.149L300,49.539L300,17.331L285.435,17.39L285.15,-52.021L201.317,-78.814L201.673,8.16L187.161,8.218L187.078,-11.987L170.664,-11.92L170.545,-41.096L116.895,-40.877L116.914,-36.262L-121.72,-35.286L-121.912,-82.149L-204.509,-54.697Z" /></g></g><g transform="matrix(1,0,0,1,0,0)" id="calendario/calendario contornos"><g id="Grupo 21" transform="matrix(1,0,0,1,300,154.185)"><path fill="#ffffff" fill-opacity="1" d="M93.365,78.07L-93.365,78.07C-99.439,78.07,-104.365,73.145,-104.365,67.07L-104.365,-67.07C-104.365,-73.145,-99.439,-78.07,-93.365,-78.07L93.365,-78.07C99.44,-78.07,104.365,-73.145,104.365,-67.07L104.365,67.07C104.365,73.145,99.44,78.07,93.365,78.07Z" /></g><g id="Grupo 20" transform="matrix(1,0,0,1,300,91.21)"><path fill="#e8e8e8" fill-opacity="1" d="M104.364,15.095L-104.365,15.095L-104.365,-4.096C-104.365,-10.171,-99.439,-15.096,-93.365,-15.096L93.364,-15.096C99.439,-15.096,104.364,-10.171,104.364,-4.096L104.364,15.095Z" /></g><g id="Grupo 19" transform="matrix(1,0,0,1,369.254,91.32)"><path fill="#ffffff" fill-opacity="1" d="M6.376,0C6.376,3.521,3.522,6.376,0,6.376C-3.521,6.376,-6.376,3.521,-6.376,0C-6.376,-3.521,-3.521,-6.376,0,-6.376C3.522,-6.376,6.376,-3.521,6.376,0Z" /></g><g id="Grupo 18" transform="matrix(1,0,0,1,365.373,77.304)"><path stroke-linejoin="round" stroke-linecap="round" stroke-width="3" stroke-opacity="1" stroke="#545759" d="M-3.135,-2.488C-2.525,-9.431,-1.474,-14.016,-0.28,-14.016C1.606,-14.016,3.135,-2.587,3.135,11.512C3.135,12.356,3.13,13.192,3.119,14.016" /></g><g id="Grupo 17" transform="matrix(1,0,0,1,341.681,91.32)"><path fill="#ffffff" fill-opacity="1" d="M6.376,0C6.376,3.521,3.522,6.376,0,6.376C-3.521,6.376,-6.376,3.521,-6.376,0C-6.376,-3.521,-3.521,-6.376,0,-6.376C3.522,-6.376,6.376,-3.521,6.376,0Z" /></g><g id="Grupo 16" transform="matrix(1,0,0,1,337.8,77.304)"><path stroke-linejoin="round" stroke-linecap="round" stroke-width="3" stroke-opacity="1" stroke="#545759" d="M-3.135,-2.488C-2.525,-9.431,-1.474,-14.016,-0.28,-14.016C1.605,-14.016,3.135,-2.587,3.135,11.512C3.135,12.356,3.129,13.192,3.118,14.016" /></g><g id="Grupo 15" transform="matrix(1,0,0,1,314.106,91.32)"><path fill="#ffffff" fill-opacity="1" d="M6.376,0C6.376,3.521,3.522,6.376,0,6.376C-3.521,6.376,-6.376,3.521,-6.376,0C-6.376,-3.521,-3.521,-6.376,0,-6.376C3.522,-6.376,6.376,-3.521,6.376,0Z" /></g><g id="Grupo 14" transform="matrix(1,0,0,1,310.226,77.304)"><path stroke-linejoin="round" stroke-linecap="round" stroke-width="3" stroke-opacity="1" stroke="#545759" d="M-3.135,-2.488C-2.525,-9.431,-1.474,-14.016,-0.28,-14.016C1.606,-14.016,3.135,-2.587,3.135,11.512C3.135,12.356,3.13,13.192,3.119,14.016" /></g><g id="Grupo 13" transform="matrix(1,0,0,1,286.533,91.32)"><path fill="#ffffff" fill-opacity="1" d="M6.376,0C6.376,3.521,3.522,6.376,0,6.376C-3.521,6.376,-6.376,3.521,-6.376,0C-6.376,-3.521,-3.521,-6.376,0,-6.376C3.522,-6.376,6.376,-3.521,6.376,0Z" /></g><g id="Grupo 12" transform="matrix(1,0,0,1,282.652,77.304)"><path stroke-linejoin="round" stroke-linecap="round" stroke-width="3" stroke-opacity="1" stroke="#484848" d="M-3.134,-2.488C-2.524,-9.431,-1.474,-14.016,-0.28,-14.016C1.606,-14.016,3.134,-2.587,3.134,11.512C3.134,12.356,3.129,13.192,3.118,14.016" /></g><g id="Grupo 11" transform="matrix(1,0,0,1,258.959,91.32)"><path fill="#ffffff" fill-opacity="1" d="M6.376,0C6.376,3.521,3.522,6.376,0,6.376C-3.521,6.376,-6.376,3.521,-6.376,0C-6.376,-3.521,-3.521,-6.376,0,-6.376C3.522,-6.376,6.376,-3.521,6.376,0Z" /></g><g id="Grupo 10" transform="matrix(1,0,0,1,255.078,77.304)"><path stroke-linejoin="round" stroke-linecap="round" stroke-width="3" stroke-opacity="1" stroke="#484848" d="M-3.135,-2.488C-2.525,-9.431,-1.474,-14.016,-0.28,-14.016C1.606,-14.016,3.134,-2.587,3.134,11.512C3.134,12.356,3.129,13.192,3.118,14.016" /></g><g id="Grupo 9" transform="matrix(1,0,0,1,231.385,91.32)"><path fill="#ffffff" fill-opacity="1" d="M6.376,0C6.376,3.521,3.522,6.376,0,6.376C-3.521,6.376,-6.376,3.521,-6.376,0C-6.376,-3.521,-3.521,-6.376,0,-6.376C3.522,-6.376,6.376,-3.521,6.376,0Z" /></g><g id="Grupo 8" transform="matrix(1,0,0,1,227.505,77.304)"><path stroke-linejoin="round" stroke-linecap="round" stroke-width="3" stroke-opacity="1" stroke="#484848" d="M-3.135,-2.488C-2.525,-9.431,-1.474,-14.016,-0.28,-14.016C1.606,-14.016,3.134,-2.587,3.134,11.512C3.134,12.356,3.129,13.192,3.118,14.016" /></g><g id="Grupo 7" transform="matrix(1,0,0,1,300,122.204)"><path stroke-linejoin="round" stroke-linecap="round" stroke-width="1.7" stroke-opacity="1" stroke="#484848" d="M-104.364,46.089L-104.364,35.952L-104.364,-35.089C-104.364,-41.164,-99.439,-46.089,-93.364,-46.089L93.365,-46.089C99.44,-46.089,104.365,-41.164,104.365,-35.089" /></g><g id="Grupo 6" transform="matrix(1,0,0,1,222.709,211.114)"><path stroke-linejoin="round" stroke-linecap="round" stroke-width="1.7" stroke-opacity="1" stroke="#484848" d="M27.073,21.141L-16.073,21.141C-22.148,21.141,-27.073,16.216,-27.073,10.141L-27.073,-21.141" /></g><g id="Grupo 5"><path stroke-linejoin="round" stroke-linecap="round" stroke-width="1.7" stroke-opacity="1" stroke="#545759" d="M279.299,232.255L272.823,232.255" /></g><g id="Grupo 4" transform="matrix(1,0,0,1,347.011,210.269)"><path stroke-linejoin="round" stroke-linecap="round" stroke-width="1.7" stroke-opacity="1" stroke="#545759" d="M57.353,-21.986L57.353,10.986C57.353,17.061,52.428,21.986,46.353,21.986L-57.354,21.986" /></g><g id="Grupo 3"><path stroke-linejoin="round" stroke-linecap="round" stroke-width="1.7" stroke-opacity="1" stroke="#545759" d="M404.364,171.672L404.364,180.4" /></g><g id="Grupo 2"><path stroke-linejoin="round" stroke-linecap="round" stroke-width="1.7" stroke-opacity="1" stroke="#545759" d="M404.364,115.559L404.364,124.288" /></g><g id="Grupo 1"><path stroke-linejoin="round" stroke-linecap="round" stroke-width="1.7" stroke-opacity="1" stroke="#545759" d="M404.364,130.846L404.364,163.225" /></g></g><g transform="matrix(1,0,0,1,0,0)" id="dias"><use clip-path="url(#cp-600-250)" height="250" width="600" y="0" x="0" xlink:href="#comp_1" href="#comp_1" /></g><g id="check/calendario contornos"><g transform="translate(323.5,147.5)"><g transform="scale(0,0)"><animateTransform repeatCount="indefinite" type="scale" attributeName="transform" dur="0.667s" begin="0.867s" calcMode="spline" values="0 0; 2 2; 1 1" keyTimes="0; 0.3; 1" keySplines="0 0 1 1; 0 0 1 1" fill="freeze" /><g transform="translate(-323.5,-147.5)"><g id="Grupo 1" transform="matrix(1,0,0,1,323.405,146.875)"><path stroke-linejoin="round" stroke-linecap="round" stroke-width="10" stroke-opacity="1" stroke="#ffffff" d="M-8.587,0.922L-1.971,8.235L8.587,-8.235" /></g></g></g></g></g><g opacity="0" visibility="hidden" id="estrellas"><animate repeatCount="indefinite" begin="3s" calcMode="discrete" fill="freeze" dur="0s" values="visible; visible" keyTimes="0; 1" attributeName="visibility" /><animate repeatCount="indefinite" attributeName="opacity" dur="2.966666666666667s" begin="0s" calcMode="spline" values="0; 1; 0" keyTimes="0; 0.449; 1" keySplines="0 0 1 1; 0 0 1 1" fill="freeze" /><g transform="translate(300,125) scale(1,1) translate(-300,-125)"><use clip-path="url(#cp-600-250)" height="250" width="600" y="0" x="0" xlink:href="#comp_0" href="#comp_0" /></g></g></svg>